<?xml version="1.0" encoding="UTF-8" standalone="no"?>
<!-- Created with Inkscape (http://www.inkscape.org/) -->

<svg
   xmlns:dc="http://purl.org/dc/elements/1.1/"
   xmlns:cc="http://creativecommons.org/ns#"
   xmlns:rdf="http://www.w3.org/1999/02/22-rdf-syntax-ns#"
   xmlns:svg="http://www.w3.org/2000/svg"
   xmlns="http://www.w3.org/2000/svg"
   xmlns:sodipodi="http://sodipodi.sourceforge.net/DTD/sodipodi-0.dtd"
   xmlns:inkscape="http://www.inkscape.org/namespaces/inkscape"
   width="140"
   height="60"
   viewBox="0 0 140 60.000001"
   id="svg2"
   version="1.1"
   inkscape:version="0.91 r13725"
   inkscape:export-filename="/Users/ryo/dev/game/zpids_umbrella/zompid.png"
   inkscape:export-xdpi="600"
   inkscape:export-ydpi="600">
  <defs
     id="defs4" />
  <sodipodi:namedview
     id="base"
     pagecolor="#ffffff"
     bordercolor="#666666"
     borderopacity="1.0"
     inkscape:pageopacity="0.0"
     inkscape:pageshadow="2"
     inkscape:zoom="7.9"
     inkscape:cx="49.556962"
     inkscape:cy="30"
     inkscape:document-units="px"
     inkscape:current-layer="layer1"
     showgrid="false"
     units="px"
     showguides="false"
     inkscape:object-nodes="true"
     inkscape:snap-center="true"
     inkscape:snap-object-midpoints="true"
     inkscape:snap-others="true"
     inkscape:snap-to-guides="true"
     inkscape:snap-grids="false"
     inkscape:snap-text-baseline="true"
     inkscape:snap-page="true"
     inkscape:snap-bbox="true"
     inkscape:object-paths="true"
     inkscape:snap-intersection-paths="true"
     inkscape:snap-smooth-nodes="true"
     inkscape:snap-midpoints="true"
     inkscape:bbox-paths="true"
     inkscape:bbox-nodes="true"
     inkscape:snap-bbox-edge-midpoints="true"
     inkscape:snap-bbox-midpoints="true"
     inkscape:window-width="1280"
     inkscape:window-height="751"
     inkscape:window-x="0"
     inkscape:window-y="23"
     inkscape:window-maximized="1">
    <inkscape:grid
       type="xygrid"
       id="grid4136" />
  </sodipodi:namedview>
  <metadata
     id="metadata7">
    <rdf:RDF>
      <cc:Work
         rdf:about="">
        <dc:format>image/svg+xml</dc:format>
        <dc:type
           rdf:resource="http://purl.org/dc/dcmitype/StillImage" />
        <dc:title></dc:title>
      </cc:Work>
    </rdf:RDF>
  </metadata>
  <g
     inkscape:label="Layer 1"
     inkscape:groupmode="layer"
     id="layer1"
     transform="translate(0,-992.36216)">
    <path
       style="opacity:1;fill:#000000;fill-opacity:1;fill-rule:nonzero;stroke:none;stroke-width:0;stroke-linecap:butt;stroke-linejoin:bevel;stroke-miterlimit:4;stroke-dasharray:none;stroke-opacity:1"
       d="m 130,1012.3622 a 10,10 0 0 0 -10,10 10,10 0 0 0 10,10 10,10 0 0 0 10,-10 10,10 0 0 0 -10,-10 z m -1.5,2.5 3,0 c -0.0522,7.4946 -1.22419,6 6,6 l 0,3 c -7.49466,-0.052 -6,-1.2242 -6,6 l -3,0 c 0.0522,-7.4947 1.2242,-6 -6,-6 l 0,-3 c 7.49465,0.052 6,1.2242 6,-6 z"
       id="path4140"
       inkscape:connector-curvature="0" />
    <path
       style="opacity:1;fill:#000000;fill-opacity:1;fill-rule:nonzero;stroke:none;stroke-width:0;stroke-linecap:butt;stroke-linejoin:bevel;stroke-miterlimit:4;stroke-dasharray:none;stroke-opacity:1"
       d="m 90,1012.3622 a 10,10 0 0 0 -10,10 10,10 0 0 0 2.005859,5.9941 L 95.992188,1014.37 A 10,10 0 0 0 90,1012.3622 Z m 7.994141,4.0058 -13.986329,13.9863 A 10,10 0 0 0 90,1032.3622 a 10,10 0 0 0 10,-10 10,10 0 0 0 -2.005859,-5.9942 z"
       id="path4142"
       inkscape:connector-curvature="0" />
    <path
       style="opacity:1;fill:#000000;fill-opacity:1;fill-rule:nonzero;stroke:none;stroke-width:0;stroke-linecap:butt;stroke-linejoin:bevel;stroke-miterlimit:4;stroke-dasharray:none;stroke-opacity:1"
       d="m 50,1012.3622 a 10,10 0 0 0 -10,10 10,10 0 0 0 10,10 10,10 0 0 0 10,-10 10,10 0 0 0 -10,-10 z m -4.242188,3.6367 c 5.262749,5.3362 3.376038,5.1083 8.484376,0 l 2.121093,2.1211 c -5.33645,5.2626 -5.108274,3.376 0,8.4843 l -2.121093,2.1211 c -5.262755,-5.3363 -3.376094,-5.1082 -8.484376,0 l -2.121093,-2.1211 c 5.336464,-5.2626 5.108281,-3.3761 0,-8.4843 l 2.121093,-2.1211 z"
       id="path4144"
       inkscape:connector-curvature="0" />
    <path
       style="fill:#000000;fill-opacity:1;fill-rule:evenodd;stroke:none;stroke-width:1px;stroke-linecap:butt;stroke-linejoin:miter;stroke-opacity:1"
       d="m 25,998.56216 -25,0 0,-6.2 39.989607,0 L 15,1026.1622 l 25,0 0,6.2 -40,0"
       id="path4146"
       inkscape:connector-curvature="0"
       sodipodi:nodetypes="cccccccc" />
    <path
       style="fill:#000000;fill-opacity:1;fill-rule:evenodd;stroke:none;stroke-width:1px;stroke-linecap:butt;stroke-linejoin:miter;stroke-opacity:1"
       d="m 60,1032.3622 6.2,0 0,-20 -6.2,0 z"
       id="path4148"
       inkscape:connector-curvature="0"
       sodipodi:nodetypes="ccccc" />
    <path
       style="fill:#000000;fill-opacity:1;fill-rule:evenodd;stroke:none;stroke-width:1px;stroke-linecap:butt;stroke-linejoin:miter;stroke-opacity:1"
       d="m 70,1012.3622 0,20 6.2,0 0,-20 z"
       id="path4150"
       inkscape:connector-curvature="0"
       sodipodi:nodetypes="ccccc" />
    <path
       style="fill:#000000;fill-opacity:1;fill-rule:evenodd;stroke:none;stroke-width:1px;stroke-linecap:butt;stroke-linejoin:miter;stroke-opacity:1"
       d="m 80,1012.3622 0,40 6.2,0 0,-22 -2.192188,-0.01 -2.001953,-1.998 4.194141,-5.9941 0,-10 z"
       id="path4152"
       inkscape:connector-curvature="0"
       sodipodi:nodetypes="ccccccccc" />
    <path
       style="fill:#000000;fill-opacity:1;fill-rule:evenodd;stroke:none;stroke-width:1px;stroke-linecap:butt;stroke-linejoin:miter;stroke-opacity:1"
       d="m 106.9,1032.3622 6.2,0 0,-20 -6.2,0 z"
       id="path4154"
       inkscape:connector-curvature="0"
       sodipodi:nodetypes="ccccc" />
    <path
       style="fill:#000000;fill-opacity:1;fill-rule:evenodd;stroke:none;stroke-width:1px;stroke-linecap:butt;stroke-linejoin:miter;stroke-opacity:1"
       d="m 113.1,1002.3051 0,6.2571 -6.2,0 0,-6.2571 z"
       id="path4156"
       inkscape:connector-curvature="0"
       sodipodi:nodetypes="ccccc" />
    <path
       style="fill:#000000;fill-opacity:1;fill-rule:evenodd;stroke:none;stroke-width:1px;stroke-linecap:butt;stroke-linejoin:miter;stroke-opacity:1"
       d="m 133.8,1032.3622 6.2,0 0,-40.00004 -6.2,0 0,25.00004 6.2,5 -6.2,5 z"
       id="path4158"
       inkscape:connector-curvature="0"
       sodipodi:nodetypes="cccccccc" />
  </g>
</svg>
